<?xml version="1.0" encoding="utf-8"?>
<!-- Generator: Adobe Illustrator 19.1.0, SVG Export Plug-In . SVG Version: 6.00 Build 0)  -->
<!DOCTYPE svg PUBLIC "-//W3C//DTD SVG 1.1//EN" "http://www.w3.org/Graphics/SVG/1.1/DTD/svg11.dtd">
<svg version="1.1" id="Layer_1" xmlns="http://www.w3.org/2000/svg" xmlns:xlink="http://www.w3.org/1999/xlink" x="0px" y="0px"
	 viewBox="-2039 621.6 32 32" style="enable-background:new -2039 621.6 32 32;" xml:space="preserve">
<style type="text/css">
	.st0{fill:#FF00FF;stroke:#FF00FF;stroke-width:0.5;stroke-miterlimit:10;}
	.st1{fill:#FF00FF;}
</style>
<g>
	<path class="st0" d="M-2008.7,629.1h-28.7c-0.4,0-0.7,0.3-0.7,0.7s0.3,0.7,0.7,0.7h6.2c0,1.4,0.2,5.6,2.7,8.3
		c1.5,1.6,3.4,2.4,5.9,2.4c0,0,0,0,0,0c0,0,0,0,0,0c0,0,0,0,0,0c0,0,0,0,0,0c2.4,0,4.4-0.8,5.9-2.4c2.5-2.7,2.7-6.9,2.7-8.3h5.1
		c0.4,0,0.7-0.3,0.7-0.7C-2008,629.4-2008.3,629.1-2008.7,629.1z M-2017.5,637.8c-1.2,1.3-2.9,2-5,2c-2.1,0-3.8-0.7-5-2
		c-2.2-2.4-2.4-6.2-2.4-7.4h6.7v7.5c0,0.4,0.3,0.7,0.7,0.7s0.7-0.3,0.7-0.7v-7.5h6.7C-2015.1,631.6-2015.3,635.5-2017.5,637.8z"/>
	<path class="st0" d="M-2022.5,643.3c0,0-5.3,9.2,0.1,9.3c5.4-0.1,0-9.3,0-9.3H-2022.5z"/>
</g>
<g>
	<path class="st1" d="M-2029.7,625.1v3.5h-1.5v-5h1.9c0.8,0,1.5,0.2,2,0.6c0.6,0.5,0.8,1.1,0.8,1.9c0,0.7-0.2,1.4-0.7,1.8
		s-1.1,0.7-1.9,0.7c-0.1,0-0.2,0-0.4,0v-1.5h0.2c0.9,0,1.3-0.4,1.3-1.1c0-0.7-0.4-1-1.3-1H-2029.7z"/>
	<path class="st1" d="M-2023.8,624.9v1.5c-0.1-0.1-0.2-0.1-0.3-0.1c-0.2,0-0.4,0.2-0.4,0.6v1.7h-1.4v-2c0-0.5,0.1-0.9,0.4-1.2
		c0.3-0.3,0.7-0.5,1.1-0.5C-2024.1,624.9-2024,624.9-2023.8,624.9z"/>
	<path class="st1" d="M-2021.7,624.9c0.5,0,1,0.2,1.3,0.6c0.4,0.4,0.5,0.8,0.5,1.3c0,0.5-0.2,1-0.6,1.3c-0.4,0.4-0.8,0.6-1.3,0.6
		c-0.5,0-1-0.2-1.3-0.6c-0.4-0.4-0.6-0.8-0.6-1.3c0-0.5,0.2-1,0.6-1.3C-2022.7,625.1-2022.2,624.9-2021.7,624.9z M-2021.7,626.2
		c-0.1,0-0.3,0.1-0.4,0.2c-0.1,0.1-0.2,0.2-0.2,0.4c0,0.2,0.1,0.3,0.2,0.4c0.1,0.1,0.2,0.2,0.4,0.2c0.1,0,0.3-0.1,0.4-0.2
		c0.1-0.1,0.2-0.2,0.2-0.4c0-0.2-0.1-0.3-0.2-0.4C-2021.5,626.3-2021.6,626.2-2021.7,626.2z"/>
	<path class="st1" d="M-2017.5,624.9c0.5,0,1,0.2,1.3,0.6c0.4,0.4,0.5,0.8,0.5,1.3c0,0.5-0.2,1-0.6,1.3c-0.4,0.4-0.8,0.6-1.3,0.6
		c-0.5,0-1-0.2-1.3-0.6c-0.4-0.4-0.6-0.8-0.6-1.3c0-0.5,0.2-1,0.6-1.3C-2018.5,625.1-2018.1,624.9-2017.5,624.9z M-2017.6,626.2
		c-0.1,0-0.3,0.1-0.4,0.2c-0.1,0.1-0.2,0.2-0.2,0.4c0,0.2,0.1,0.3,0.2,0.4s0.2,0.2,0.4,0.2c0.1,0,0.3-0.1,0.4-0.2
		c0.1-0.1,0.2-0.2,0.2-0.4c0-0.2,0-0.3-0.2-0.4C-2017.3,626.3-2017.4,626.2-2017.6,626.2z"/>
	<path class="st1" d="M-2013.8,623.6v5h-1.4v-5H-2013.8z"/>
</g>
</svg>
